<svg width="22" height="22" viewBox="0 0 22 22" fill="none" xmlns="http://www.w3.org/2000/svg">
<path fill-rule="evenodd" clip-rule="evenodd" d="M20.9999 15.92V18.92C21.0022 19.4832 20.767 20.0212 20.352 20.4019C19.937 20.7826 19.3808 20.9707 18.8199 20.92C15.7428 20.5856 12.7869 19.5342 10.1899 17.85C7.77377 16.3147 5.72528 14.2662 4.18994 11.85C2.49992 9.24121 1.44818 6.271 1.11994 3.18001C1.06941 2.62088 1.25621 2.06626 1.63471 1.65163C2.0132 1.237 2.54853 1.00054 3.10994 1.00001H6.10994C7.1138 0.990127 7.96944 1.72597 8.10994 2.72001C8.23656 3.68007 8.47139 4.62273 8.80994 5.53001C9.08468 6.26088 8.90896 7.08481 8.35994 7.64001L7.08994 8.91001C8.5135 11.4136 10.5864 13.4865 13.0899 14.91L14.3599 13.64C14.9151 13.091 15.7391 12.9153 16.4699 13.19C17.3772 13.5286 18.3199 13.7634 19.2799 13.89C20.2855 14.0319 21.0251 14.9048 20.9999 15.92Z" stroke="#31405B" stroke-width="2" stroke-linecap="round" stroke-linejoin="round"/>
</svg>
